<mxfile host="app.diagrams.net" modified="2023-04-01T21:27:37.606Z" agent="Mozilla/5.0 (X11; Ubuntu; Linux x86_64; rv:109.0) Gecko/20100101 Firefox/111.0" etag="7pU-cEUij3IWIFmjYFe7" version="21.1.2" type="github">
  <diagram name="Page-1" id="d31sJ3qOl9ZliufpMC2P">
    <mxGraphModel dx="1366" dy="795" grid="1" gridSize="10" guides="1" tooltips="1" connect="1" arrows="1" fold="1" page="1" pageScale="1" pageWidth="827" pageHeight="1169" math="0" shadow="0">
      <root>
        <mxCell id="0" />
        <mxCell id="1" parent="0" />
        <mxCell id="Bbp6-vzB4W8oL8_7oagb-3" style="edgeStyle=elbowEdgeStyle;rounded=0;orthogonalLoop=1;jettySize=auto;html=1;elbow=vertical;curved=0;" edge="1" parent="1" source="Bbp6-vzB4W8oL8_7oagb-1" target="Bbp6-vzB4W8oL8_7oagb-2">
          <mxGeometry relative="1" as="geometry">
            <Array as="points">
              <mxPoint x="490" y="200" />
              <mxPoint x="440" y="160" />
            </Array>
          </mxGeometry>
        </mxCell>
        <mxCell id="Bbp6-vzB4W8oL8_7oagb-5" value="start game req" style="edgeLabel;html=1;align=center;verticalAlign=middle;resizable=0;points=[];" vertex="1" connectable="0" parent="Bbp6-vzB4W8oL8_7oagb-3">
          <mxGeometry x="-0.2708" y="2" relative="1" as="geometry">
            <mxPoint x="-28" as="offset" />
          </mxGeometry>
        </mxCell>
        <mxCell id="Bbp6-vzB4W8oL8_7oagb-36" style="edgeStyle=elbowEdgeStyle;rounded=0;orthogonalLoop=1;jettySize=auto;html=1;elbow=vertical;curved=0;" edge="1" parent="1" source="Bbp6-vzB4W8oL8_7oagb-1" target="Bbp6-vzB4W8oL8_7oagb-2">
          <mxGeometry relative="1" as="geometry">
            <mxPoint x="430" y="510" as="sourcePoint" />
            <Array as="points">
              <mxPoint x="360" y="300" />
              <mxPoint x="430" y="340" />
            </Array>
          </mxGeometry>
        </mxCell>
        <mxCell id="Bbp6-vzB4W8oL8_7oagb-37" value="prevGameRespNewGameReq" style="edgeLabel;html=1;align=center;verticalAlign=middle;resizable=0;points=[];" vertex="1" connectable="0" parent="Bbp6-vzB4W8oL8_7oagb-36">
          <mxGeometry x="0.0399" y="1" relative="1" as="geometry">
            <mxPoint x="-4" y="-1" as="offset" />
          </mxGeometry>
        </mxCell>
        <mxCell id="Bbp6-vzB4W8oL8_7oagb-69" style="edgeStyle=elbowEdgeStyle;rounded=0;orthogonalLoop=1;jettySize=auto;html=1;elbow=vertical;curved=0;" edge="1" parent="1" source="Bbp6-vzB4W8oL8_7oagb-1" target="Bbp6-vzB4W8oL8_7oagb-68">
          <mxGeometry relative="1" as="geometry">
            <Array as="points">
              <mxPoint x="640" y="150" />
              <mxPoint x="620" y="130" />
              <mxPoint x="660" y="210" />
            </Array>
          </mxGeometry>
        </mxCell>
        <mxCell id="Bbp6-vzB4W8oL8_7oagb-70" value="login" style="edgeLabel;html=1;align=center;verticalAlign=middle;resizable=0;points=[];" vertex="1" connectable="0" parent="Bbp6-vzB4W8oL8_7oagb-69">
          <mxGeometry x="-0.0336" relative="1" as="geometry">
            <mxPoint as="offset" />
          </mxGeometry>
        </mxCell>
        <mxCell id="Bbp6-vzB4W8oL8_7oagb-1" value="" style="shape=umlLifeline;perimeter=lifelinePerimeter;whiteSpace=wrap;html=1;container=1;dropTarget=0;collapsible=0;recursiveResize=0;outlineConnect=0;portConstraint=eastwest;newEdgeStyle={&quot;edgeStyle&quot;:&quot;elbowEdgeStyle&quot;,&quot;elbow&quot;:&quot;vertical&quot;,&quot;curved&quot;:0,&quot;rounded&quot;:0};participant=umlActor;" vertex="1" parent="1">
          <mxGeometry x="540" y="80" width="20" height="460" as="geometry" />
        </mxCell>
        <mxCell id="Bbp6-vzB4W8oL8_7oagb-7" style="edgeStyle=elbowEdgeStyle;rounded=0;orthogonalLoop=1;jettySize=auto;html=1;elbow=vertical;curved=0;" edge="1" parent="1" source="Bbp6-vzB4W8oL8_7oagb-2" target="Bbp6-vzB4W8oL8_7oagb-1">
          <mxGeometry relative="1" as="geometry">
            <Array as="points">
              <mxPoint x="490" y="240" />
              <mxPoint x="340" y="280" />
            </Array>
          </mxGeometry>
        </mxCell>
        <mxCell id="Bbp6-vzB4W8oL8_7oagb-8" value="start game resp" style="edgeLabel;html=1;align=center;verticalAlign=middle;resizable=0;points=[];" vertex="1" connectable="0" parent="Bbp6-vzB4W8oL8_7oagb-7">
          <mxGeometry x="0.0542" y="1" relative="1" as="geometry">
            <mxPoint as="offset" />
          </mxGeometry>
        </mxCell>
        <mxCell id="Bbp6-vzB4W8oL8_7oagb-38" style="edgeStyle=elbowEdgeStyle;rounded=0;orthogonalLoop=1;jettySize=auto;html=1;elbow=vertical;curved=0;" edge="1" parent="1" source="Bbp6-vzB4W8oL8_7oagb-2" target="Bbp6-vzB4W8oL8_7oagb-1">
          <mxGeometry relative="1" as="geometry">
            <Array as="points">
              <mxPoint x="490" y="430" />
              <mxPoint x="510" y="460" />
              <mxPoint x="490" y="440" />
              <mxPoint x="480" y="360" />
              <mxPoint x="490" y="450" />
              <mxPoint x="430" y="400" />
            </Array>
          </mxGeometry>
        </mxCell>
        <mxCell id="Bbp6-vzB4W8oL8_7oagb-39" value="prevGamePointsNewGameResp" style="edgeLabel;html=1;align=center;verticalAlign=middle;resizable=0;points=[];" vertex="1" connectable="0" parent="Bbp6-vzB4W8oL8_7oagb-38">
          <mxGeometry x="-0.1829" y="1" relative="1" as="geometry">
            <mxPoint as="offset" />
          </mxGeometry>
        </mxCell>
        <mxCell id="Bbp6-vzB4W8oL8_7oagb-45" style="edgeStyle=elbowEdgeStyle;rounded=0;orthogonalLoop=1;jettySize=auto;html=1;elbow=vertical;curved=0;" edge="1" parent="1" source="Bbp6-vzB4W8oL8_7oagb-2" target="Bbp6-vzB4W8oL8_7oagb-44">
          <mxGeometry relative="1" as="geometry">
            <Array as="points">
              <mxPoint x="90" y="400" />
            </Array>
          </mxGeometry>
        </mxCell>
        <mxCell id="Bbp6-vzB4W8oL8_7oagb-46" value="getGame" style="edgeLabel;html=1;align=center;verticalAlign=middle;resizable=0;points=[];" vertex="1" connectable="0" parent="Bbp6-vzB4W8oL8_7oagb-45">
          <mxGeometry x="0.1431" y="3" relative="1" as="geometry">
            <mxPoint x="12" y="-3" as="offset" />
          </mxGeometry>
        </mxCell>
        <mxCell id="Bbp6-vzB4W8oL8_7oagb-2" value="server" style="shape=umlLifeline;perimeter=lifelinePerimeter;whiteSpace=wrap;html=1;container=1;dropTarget=0;collapsible=0;recursiveResize=0;outlineConnect=0;portConstraint=eastwest;newEdgeStyle={&quot;edgeStyle&quot;:&quot;elbowEdgeStyle&quot;,&quot;elbow&quot;:&quot;vertical&quot;,&quot;curved&quot;:0,&quot;rounded&quot;:0};size=40;" vertex="1" parent="1">
          <mxGeometry x="220" y="90" width="100" height="450" as="geometry" />
        </mxCell>
        <mxCell id="Bbp6-vzB4W8oL8_7oagb-15" value="start game req" style="swimlane;fontStyle=0;childLayout=stackLayout;horizontal=1;startSize=30;horizontalStack=0;resizeParent=1;resizeParentMax=0;resizeLast=0;collapsible=1;marginBottom=0;whiteSpace=wrap;html=1;" vertex="1" parent="1">
          <mxGeometry x="780" y="50" width="140" height="60" as="geometry">
            <mxRectangle x="600" y="240" width="60" height="30" as="alternateBounds" />
          </mxGeometry>
        </mxCell>
        <mxCell id="Bbp6-vzB4W8oL8_7oagb-16" value="userId" style="text;strokeColor=none;fillColor=none;align=left;verticalAlign=middle;spacingLeft=4;spacingRight=4;overflow=hidden;points=[[0,0.5],[1,0.5]];portConstraint=eastwest;rotatable=0;whiteSpace=wrap;html=1;" vertex="1" parent="Bbp6-vzB4W8oL8_7oagb-15">
          <mxGeometry y="30" width="140" height="30" as="geometry" />
        </mxCell>
        <object label="start game resp" item="" id="Bbp6-vzB4W8oL8_7oagb-19">
          <mxCell style="swimlane;fontStyle=0;childLayout=stackLayout;horizontal=1;startSize=30;horizontalStack=0;resizeParent=1;resizeParentMax=0;resizeLast=0;collapsible=1;marginBottom=0;whiteSpace=wrap;html=1;" vertex="1" parent="1">
            <mxGeometry x="780" y="120" width="140" height="120" as="geometry">
              <mxRectangle x="600" y="120" width="120" height="30" as="alternateBounds" />
            </mxGeometry>
          </mxCell>
        </object>
        <mxCell id="Bbp6-vzB4W8oL8_7oagb-20" value="user1id" style="text;strokeColor=none;fillColor=none;align=left;verticalAlign=middle;spacingLeft=4;spacingRight=4;overflow=hidden;points=[[0,0.5],[1,0.5]];portConstraint=eastwest;rotatable=0;whiteSpace=wrap;html=1;" vertex="1" parent="Bbp6-vzB4W8oL8_7oagb-19">
          <mxGeometry y="30" width="140" height="30" as="geometry" />
        </mxCell>
        <mxCell id="Bbp6-vzB4W8oL8_7oagb-21" value="user2id" style="text;strokeColor=none;fillColor=none;align=left;verticalAlign=middle;spacingLeft=4;spacingRight=4;overflow=hidden;points=[[0,0.5],[1,0.5]];portConstraint=eastwest;rotatable=0;whiteSpace=wrap;html=1;" vertex="1" parent="Bbp6-vzB4W8oL8_7oagb-19">
          <mxGeometry y="60" width="140" height="30" as="geometry" />
        </mxCell>
        <mxCell id="Bbp6-vzB4W8oL8_7oagb-28" value="gameId" style="text;strokeColor=none;fillColor=none;align=left;verticalAlign=middle;spacingLeft=4;spacingRight=4;overflow=hidden;points=[[0,0.5],[1,0.5]];portConstraint=eastwest;rotatable=0;whiteSpace=wrap;html=1;" vertex="1" parent="Bbp6-vzB4W8oL8_7oagb-19">
          <mxGeometry y="90" width="140" height="30" as="geometry" />
        </mxCell>
        <mxCell id="Bbp6-vzB4W8oL8_7oagb-40" style="edgeStyle=elbowEdgeStyle;rounded=0;orthogonalLoop=1;jettySize=auto;html=1;elbow=vertical;curved=0;" edge="1" parent="1" target="Bbp6-vzB4W8oL8_7oagb-44">
          <mxGeometry relative="1" as="geometry">
            <mxPoint x="269.57" y="380" as="sourcePoint" />
            <mxPoint x="129.99857142857144" y="380" as="targetPoint" />
            <Array as="points" />
          </mxGeometry>
        </mxCell>
        <mxCell id="Bbp6-vzB4W8oL8_7oagb-41" value="getPoints" style="edgeLabel;html=1;align=center;verticalAlign=middle;resizable=0;points=[];" vertex="1" connectable="0" parent="Bbp6-vzB4W8oL8_7oagb-40">
          <mxGeometry x="0.1576" y="-2" relative="1" as="geometry">
            <mxPoint x="11" y="2" as="offset" />
          </mxGeometry>
        </mxCell>
        <mxCell id="Bbp6-vzB4W8oL8_7oagb-42" style="edgeStyle=elbowEdgeStyle;rounded=0;orthogonalLoop=1;jettySize=auto;html=1;elbow=vertical;curved=0;" edge="1" parent="1" source="Bbp6-vzB4W8oL8_7oagb-44">
          <mxGeometry relative="1" as="geometry">
            <mxPoint x="130" y="340" as="sourcePoint" />
            <mxPoint x="270" y="340" as="targetPoint" />
            <Array as="points">
              <mxPoint x="200" y="340" />
            </Array>
          </mxGeometry>
        </mxCell>
        <mxCell id="Bbp6-vzB4W8oL8_7oagb-43" value="resp" style="edgeLabel;html=1;align=center;verticalAlign=middle;resizable=0;points=[];" vertex="1" connectable="0" parent="Bbp6-vzB4W8oL8_7oagb-42">
          <mxGeometry x="0.653" relative="1" as="geometry">
            <mxPoint x="-45" as="offset" />
          </mxGeometry>
        </mxCell>
        <mxCell id="Bbp6-vzB4W8oL8_7oagb-47" style="edgeStyle=elbowEdgeStyle;rounded=0;orthogonalLoop=1;jettySize=auto;html=1;elbow=vertical;curved=0;" edge="1" parent="1" source="Bbp6-vzB4W8oL8_7oagb-44" target="Bbp6-vzB4W8oL8_7oagb-2">
          <mxGeometry relative="1" as="geometry">
            <Array as="points">
              <mxPoint x="210" y="400" />
              <mxPoint x="220" y="410" />
              <mxPoint x="220" y="400" />
              <mxPoint x="170" y="420" />
            </Array>
          </mxGeometry>
        </mxCell>
        <mxCell id="Bbp6-vzB4W8oL8_7oagb-48" value="resp" style="edgeLabel;html=1;align=center;verticalAlign=middle;resizable=0;points=[];" vertex="1" connectable="0" parent="Bbp6-vzB4W8oL8_7oagb-47">
          <mxGeometry x="-0.1261" y="-2" relative="1" as="geometry">
            <mxPoint as="offset" />
          </mxGeometry>
        </mxCell>
        <mxCell id="Bbp6-vzB4W8oL8_7oagb-44" value="gameAPI" style="shape=umlLifeline;perimeter=lifelinePerimeter;whiteSpace=wrap;html=1;container=1;dropTarget=0;collapsible=0;recursiveResize=0;outlineConnect=0;portConstraint=eastwest;newEdgeStyle={&quot;edgeStyle&quot;:&quot;elbowEdgeStyle&quot;,&quot;elbow&quot;:&quot;vertical&quot;,&quot;curved&quot;:0,&quot;rounded&quot;:0};size=40;" vertex="1" parent="1">
          <mxGeometry x="60" y="90" width="100" height="450" as="geometry" />
        </mxCell>
        <mxCell id="Bbp6-vzB4W8oL8_7oagb-49" value="&lt;div&gt;prevGameRespNewGameReq&lt;/div&gt;" style="swimlane;fontStyle=0;childLayout=stackLayout;horizontal=1;startSize=30;horizontalStack=0;resizeParent=1;resizeParentMax=0;resizeLast=0;collapsible=1;marginBottom=0;whiteSpace=wrap;html=1;" vertex="1" parent="1">
          <mxGeometry x="780" y="290" width="193" height="150" as="geometry" />
        </mxCell>
        <mxCell id="Bbp6-vzB4W8oL8_7oagb-50" value="gameId" style="text;strokeColor=none;fillColor=none;align=left;verticalAlign=middle;spacingLeft=4;spacingRight=4;overflow=hidden;points=[[0,0.5],[1,0.5]];portConstraint=eastwest;rotatable=0;whiteSpace=wrap;html=1;" vertex="1" parent="Bbp6-vzB4W8oL8_7oagb-49">
          <mxGeometry y="30" width="193" height="30" as="geometry" />
        </mxCell>
        <mxCell id="Bbp6-vzB4W8oL8_7oagb-51" value="user1: userId, points" style="text;strokeColor=none;fillColor=none;align=left;verticalAlign=middle;spacingLeft=4;spacingRight=4;overflow=hidden;points=[[0,0.5],[1,0.5]];portConstraint=eastwest;rotatable=0;whiteSpace=wrap;html=1;" vertex="1" parent="Bbp6-vzB4W8oL8_7oagb-49">
          <mxGeometry y="60" width="193" height="30" as="geometry" />
        </mxCell>
        <mxCell id="Bbp6-vzB4W8oL8_7oagb-52" value="user2: userId, points" style="text;strokeColor=none;fillColor=none;align=left;verticalAlign=middle;spacingLeft=4;spacingRight=4;overflow=hidden;points=[[0,0.5],[1,0.5]];portConstraint=eastwest;rotatable=0;whiteSpace=wrap;html=1;" vertex="1" parent="Bbp6-vzB4W8oL8_7oagb-49">
          <mxGeometry y="90" width="193" height="30" as="geometry" />
        </mxCell>
        <mxCell id="Bbp6-vzB4W8oL8_7oagb-53" value="game: game for API, result" style="text;strokeColor=none;fillColor=none;align=left;verticalAlign=middle;spacingLeft=4;spacingRight=4;overflow=hidden;points=[[0,0.5],[1,0.5]];portConstraint=eastwest;rotatable=0;whiteSpace=wrap;html=1;" vertex="1" parent="Bbp6-vzB4W8oL8_7oagb-49">
          <mxGeometry y="120" width="193" height="30" as="geometry" />
        </mxCell>
        <mxCell id="Bbp6-vzB4W8oL8_7oagb-56" value="" style="points=[[0.25,0,0],[0.5,0,0],[0.75,0,0],[1,0.25,0],[1,0.5,0],[1,0.75,0],[0.75,1,0],[0.5,1,0],[0.25,1,0],[0,0.75,0],[0,0.5,0],[0,0.25,0]];shape=mxgraph.bpmn.task;whiteSpace=wrap;rectStyle=rounded;size=10;html=1;container=1;expand=0;collapsible=0;taskMarker=abstract;isLoopStandard=1;fillColor=none;" vertex="1" parent="1">
          <mxGeometry x="60" y="270" width="580" height="200" as="geometry" />
        </mxCell>
        <mxCell id="Bbp6-vzB4W8oL8_7oagb-57" value="&lt;div&gt;prevGameRespNewGameReq&lt;/div&gt;" style="swimlane;fontStyle=0;childLayout=stackLayout;horizontal=1;startSize=30;horizontalStack=0;resizeParent=1;resizeParentMax=0;resizeLast=0;collapsible=1;marginBottom=0;whiteSpace=wrap;html=1;" vertex="1" parent="1">
          <mxGeometry x="780" y="470" width="193" height="150" as="geometry" />
        </mxCell>
        <mxCell id="Bbp6-vzB4W8oL8_7oagb-58" value="gameId" style="text;strokeColor=none;fillColor=none;align=left;verticalAlign=middle;spacingLeft=4;spacingRight=4;overflow=hidden;points=[[0,0.5],[1,0.5]];portConstraint=eastwest;rotatable=0;whiteSpace=wrap;html=1;" vertex="1" parent="Bbp6-vzB4W8oL8_7oagb-57">
          <mxGeometry y="30" width="193" height="30" as="geometry" />
        </mxCell>
        <mxCell id="Bbp6-vzB4W8oL8_7oagb-59" value="user1: userId, points - added from prev game" style="text;strokeColor=none;fillColor=none;align=left;verticalAlign=middle;spacingLeft=4;spacingRight=4;overflow=hidden;points=[[0,0.5],[1,0.5]];portConstraint=eastwest;rotatable=0;whiteSpace=wrap;html=1;" vertex="1" parent="Bbp6-vzB4W8oL8_7oagb-57">
          <mxGeometry y="60" width="193" height="30" as="geometry" />
        </mxCell>
        <mxCell id="Bbp6-vzB4W8oL8_7oagb-60" value="user2: userId, points - added from prev game" style="text;strokeColor=none;fillColor=none;align=left;verticalAlign=middle;spacingLeft=4;spacingRight=4;overflow=hidden;points=[[0,0.5],[1,0.5]];portConstraint=eastwest;rotatable=0;whiteSpace=wrap;html=1;" vertex="1" parent="Bbp6-vzB4W8oL8_7oagb-57">
          <mxGeometry y="90" width="193" height="30" as="geometry" />
        </mxCell>
        <mxCell id="Bbp6-vzB4W8oL8_7oagb-61" value="nextGame: gameFromAPI" style="text;strokeColor=none;fillColor=none;align=left;verticalAlign=middle;spacingLeft=4;spacingRight=4;overflow=hidden;points=[[0,0.5],[1,0.5]];portConstraint=eastwest;rotatable=0;whiteSpace=wrap;html=1;" vertex="1" parent="Bbp6-vzB4W8oL8_7oagb-57">
          <mxGeometry y="120" width="193" height="30" as="geometry" />
        </mxCell>
        <mxCell id="Bbp6-vzB4W8oL8_7oagb-62" value="&lt;div&gt;&lt;b&gt;First game: &lt;/b&gt;&lt;br&gt;&lt;/div&gt;&lt;div&gt;game: null, no previous game&lt;br&gt;&lt;/div&gt;" style="shape=note;size=15;spacingLeft=5;html=1;overflow=fill;whiteSpace=wrap;" vertex="1" parent="1">
          <mxGeometry x="1013" y="290" width="210" height="40" as="geometry" />
        </mxCell>
        <mxCell id="Bbp6-vzB4W8oL8_7oagb-64" value="" style="rounded=0;endArrow=none;dashed=1;html=1;entryX=0.997;entryY=0.163;entryDx=0;entryDy=0;entryPerimeter=0;" edge="1" source="Bbp6-vzB4W8oL8_7oagb-62" target="Bbp6-vzB4W8oL8_7oagb-49" parent="1">
          <mxGeometry relative="1" as="geometry">
            <mxPoint x="1054" y="380" as="targetPoint" />
          </mxGeometry>
        </mxCell>
        <mxCell id="Bbp6-vzB4W8oL8_7oagb-65" value="&lt;div&gt;&lt;b&gt;Last game:&lt;/b&gt;&lt;/div&gt;&lt;div&gt;nexGame: null&lt;br&gt;&lt;/div&gt;" style="shape=note;size=15;spacingLeft=5;html=1;overflow=fill;whiteSpace=wrap;" vertex="1" parent="1">
          <mxGeometry x="1023" y="480" width="190" height="40" as="geometry" />
        </mxCell>
        <mxCell id="Bbp6-vzB4W8oL8_7oagb-67" value="" style="rounded=0;endArrow=none;dashed=1;html=1;" edge="1" source="Bbp6-vzB4W8oL8_7oagb-65" parent="1">
          <mxGeometry relative="1" as="geometry">
            <mxPoint x="973" y="500" as="targetPoint" />
            <Array as="points">
              <mxPoint x="973" y="500" />
            </Array>
          </mxGeometry>
        </mxCell>
        <mxCell id="Bbp6-vzB4W8oL8_7oagb-71" style="edgeStyle=elbowEdgeStyle;rounded=0;orthogonalLoop=1;jettySize=auto;html=1;elbow=vertical;curved=0;" edge="1" parent="1" source="Bbp6-vzB4W8oL8_7oagb-68" target="Bbp6-vzB4W8oL8_7oagb-1">
          <mxGeometry relative="1" as="geometry">
            <Array as="points">
              <mxPoint x="630" y="180" />
              <mxPoint x="670" y="160" />
            </Array>
          </mxGeometry>
        </mxCell>
        <mxCell id="Bbp6-vzB4W8oL8_7oagb-72" value="id/jwt?" style="edgeLabel;html=1;align=center;verticalAlign=middle;resizable=0;points=[];" vertex="1" connectable="0" parent="Bbp6-vzB4W8oL8_7oagb-71">
          <mxGeometry x="-0.123" y="3" relative="1" as="geometry">
            <mxPoint as="offset" />
          </mxGeometry>
        </mxCell>
        <mxCell id="Bbp6-vzB4W8oL8_7oagb-68" value="identity" style="shape=umlLifeline;perimeter=lifelinePerimeter;whiteSpace=wrap;html=1;container=1;dropTarget=0;collapsible=0;recursiveResize=0;outlineConnect=0;portConstraint=eastwest;newEdgeStyle={&quot;edgeStyle&quot;:&quot;elbowEdgeStyle&quot;,&quot;elbow&quot;:&quot;vertical&quot;,&quot;curved&quot;:0,&quot;rounded&quot;:0};" vertex="1" parent="1">
          <mxGeometry x="650" y="80" width="100" height="500" as="geometry" />
        </mxCell>
        <mxCell id="Bbp6-vzB4W8oL8_7oagb-73" value="GameAPI: getGame" style="swimlane;fontStyle=0;childLayout=stackLayout;horizontal=1;startSize=30;horizontalStack=0;resizeParent=1;resizeParentMax=0;resizeLast=0;collapsible=1;marginBottom=0;whiteSpace=wrap;html=1;" vertex="1" parent="1">
          <mxGeometry x="70" y="620" width="140" height="90" as="geometry" />
        </mxCell>
        <mxCell id="Bbp6-vzB4W8oL8_7oagb-74" value="&lt;b&gt;gameName&lt;/b&gt;" style="text;strokeColor=none;fillColor=none;align=left;verticalAlign=middle;spacingLeft=4;spacingRight=4;overflow=hidden;points=[[0,0.5],[1,0.5]];portConstraint=eastwest;rotatable=0;whiteSpace=wrap;html=1;" vertex="1" parent="Bbp6-vzB4W8oL8_7oagb-73">
          <mxGeometry y="30" width="140" height="30" as="geometry" />
        </mxCell>
        <mxCell id="Bbp6-vzB4W8oL8_7oagb-75" value="gameData" style="text;strokeColor=none;fillColor=none;align=left;verticalAlign=middle;spacingLeft=4;spacingRight=4;overflow=hidden;points=[[0,0.5],[1,0.5]];portConstraint=eastwest;rotatable=0;whiteSpace=wrap;html=1;" vertex="1" parent="Bbp6-vzB4W8oL8_7oagb-73">
          <mxGeometry y="60" width="140" height="30" as="geometry" />
        </mxCell>
        <mxCell id="Bbp6-vzB4W8oL8_7oagb-77" value="GameAPI: getPoints" style="swimlane;fontStyle=0;childLayout=stackLayout;horizontal=1;startSize=30;horizontalStack=0;resizeParent=1;resizeParentMax=0;resizeLast=0;collapsible=1;marginBottom=0;whiteSpace=wrap;html=1;" vertex="1" parent="1">
          <mxGeometry x="230" y="620" width="140" height="120" as="geometry" />
        </mxCell>
        <mxCell id="Bbp6-vzB4W8oL8_7oagb-78" value="gameinstance?" style="text;strokeColor=none;fillColor=none;align=left;verticalAlign=middle;spacingLeft=4;spacingRight=4;overflow=hidden;points=[[0,0.5],[1,0.5]];portConstraint=eastwest;rotatable=0;whiteSpace=wrap;html=1;" vertex="1" parent="Bbp6-vzB4W8oL8_7oagb-77">
          <mxGeometry y="30" width="140" height="30" as="geometry" />
        </mxCell>
        <mxCell id="Bbp6-vzB4W8oL8_7oagb-79" value="user1Points" style="text;strokeColor=none;fillColor=none;align=left;verticalAlign=middle;spacingLeft=4;spacingRight=4;overflow=hidden;points=[[0,0.5],[1,0.5]];portConstraint=eastwest;rotatable=0;whiteSpace=wrap;html=1;" vertex="1" parent="Bbp6-vzB4W8oL8_7oagb-77">
          <mxGeometry y="60" width="140" height="30" as="geometry" />
        </mxCell>
        <mxCell id="Bbp6-vzB4W8oL8_7oagb-80" value="user2Points" style="text;strokeColor=none;fillColor=none;align=left;verticalAlign=middle;spacingLeft=4;spacingRight=4;overflow=hidden;points=[[0,0.5],[1,0.5]];portConstraint=eastwest;rotatable=0;whiteSpace=wrap;html=1;" vertex="1" parent="Bbp6-vzB4W8oL8_7oagb-77">
          <mxGeometry y="90" width="140" height="30" as="geometry" />
        </mxCell>
      </root>
    </mxGraphModel>
  </diagram>
</mxfile>
